<?xml version="1.0" standalone="no"?>
<!DOCTYPE svg PUBLIC "-//W3C//DTD SVG 20010904//EN"
 "http://www.w3.org/TR/2001/REC-SVG-20010904/DTD/svg10.dtd">
<svg version="1.0" xmlns="http://www.w3.org/2000/svg"
 width="500.000000pt" height="500.000000pt" viewBox="0 0 500.000000 500.000000"
 preserveAspectRatio="xMidYMid meet">
<metadata>
Created by potrace 1.11, written by Peter Selinger 2001-2013
</metadata>
<g transform="translate(0.000000,500.000000) scale(0.100000,-0.100000)"
fill="#000000" stroke="none">
<path d="M2210 4705 c-347 -50 -638 -159 -920 -343 -462 -302 -806 -776 -939
-1294 -59 -229 -66 -290 -66 -578 0 -287 7 -342 65 -566 260 -1004 1200 -1701
2240 -1661 570 23 1093 250 1495 652 402 402 629 925 652 1495 31 802 -369
1551 -1061 1984 -226 142 -486 241 -781 297 -143 28 -537 36 -685 14z m670
-2099 c173 -487 318 -882 321 -878 13 13 439 1523 439 1553 0 67 -61 129 -127
129 -23 0 -33 5 -33 15 0 13 42 15 315 15 273 0 315 -2 315 -15 0 -10 -10 -15
-28 -15 -84 0 -200 -65 -246 -138 -13 -20 -147 -433 -299 -917 -314 -1002
-310 -990 -327 -1114 -10 -71 -16 -91 -27 -89 -10 2 -126 314 -334 898 -175
492 -323 904 -328 915 -6 15 -68 -161 -256 -729 -260 -789 -290 -889 -301
-1010 -5 -61 -10 -76 -23 -76 -12 0 -103 246 -386 1047 -248 702 -379 1059
-397 1085 -52 71 -158 128 -240 128 -18 0 -28 5 -28 15 0 13 46 15 355 15 309
0 355 -2 355 -15 0 -9 -9 -15 -25 -15 -73 0 -135 -61 -135 -133 0 -32 481
-1602 495 -1616 6 -6 -5 -39 311 937 217 670 292 892 304 892 11 0 98 -232
330 -884z"/>
</g>
</svg>
